ISO-10303-21;
HEADER;
/* Generated by software containing ST-Developer
 * from STEP Tools, Inc. (www.steptools.com) 
 */
/* OPTION: using custom schema-name function */

FILE_DESCRIPTION(
/* description */ (''),
/* implementation_level */ '2;1');

FILE_NAME(
/* name */ 'K31-00A(H)_Screw_terminal.stp',
/* time_stamp */ '2021-02-27T13:03:02+03:00',
/* author */ (''),
/* organization */ (''),
/* preprocessor_version */ 'ST-DEVELOPER v16',
/* originating_system */ 'SIEMENS PLM Software NX 10.0',
/* authorisation */ '');

FILE_SCHEMA (('AUTOMOTIVE_DESIGN { 1 0 10303 214 3 1 1 1 }'));
ENDSEC;

DATA;
#10=PROPERTY_DEFINITION_REPRESENTATION(#14,#12);
#11=PROPERTY_DEFINITION_REPRESENTATION(#15,#13);
#12=REPRESENTATION('',(#16),#1117);
#13=REPRESENTATION('',(#17),#1117);
#14=PROPERTY_DEFINITION('pmi validation property','',#21);
#15=PROPERTY_DEFINITION('pmi validation property','',#21);
#16=VALUE_REPRESENTATION_ITEM('number of annotations',COUNT_MEASURE(0.));
#17=VALUE_REPRESENTATION_ITEM('number of views',COUNT_MEASURE(0.));
#18=SHAPE_REPRESENTATION_RELATIONSHIP('None',
'relationship between ernu46685BFA6ll0-None and ernu46685BFA6ll0-None',
#30,#19);
#19=ADVANCED_BREP_SHAPE_REPRESENTATION('ernu46685BFA6ll0-None',(#40),#1117);
#20=SHAPE_DEFINITION_REPRESENTATION(#21,#30);
#21=PRODUCT_DEFINITION_SHAPE('','',#22);
#22=PRODUCT_DEFINITION(' ','',#24,#23);
#23=PRODUCT_DEFINITION_CONTEXT('part definition',#29,'design');
#24=PRODUCT_DEFINITION_FORMATION_WITH_SPECIFIED_SOURCE(' ',' ',#26,
 .NOT_KNOWN.);
#25=PRODUCT_RELATED_PRODUCT_CATEGORY('part','',(#26));
#26=PRODUCT('ernu46685BFA6ll0','ernu46685BFA6ll0',' ',(#27));
#27=PRODUCT_CONTEXT(' ',#29,'mechanical');
#28=APPLICATION_PROTOCOL_DEFINITION('international standard',
'automotive_design',2010,#29);
#29=APPLICATION_CONTEXT(
'core data for automotive mechanical design processes');
#30=SHAPE_REPRESENTATION('ernu46685BFA6ll0-None',(#686),#1117);
#31=PRESENTATION_LAYER_ASSIGNMENT('1','Layer 1',(#40));
#32=STYLED_ITEM('',(#33),#40);
#33=PRESENTATION_STYLE_ASSIGNMENT((#34));
#34=SURFACE_STYLE_USAGE(.BOTH.,#35);
#35=SURFACE_SIDE_STYLE('',(#36));
#36=SURFACE_STYLE_FILL_AREA(#37);
#37=FILL_AREA_STYLE('',(#38));
#38=FILL_AREA_STYLE_COLOUR('',#39);
#39=COLOUR_RGB('Light Gray',0.8,0.8,0.8);
#40=MANIFOLD_SOLID_BREP('',#41);
#41=CLOSED_SHELL('',(#68,#69,#70,#71,#72,#73,#74,#75,#76,#77,#78,#79,#80,
#81,#82,#83,#84,#85,#86,#87,#88,#89,#90,#91,#92,#93,#94,#95,#96,#97,#98,
#99,#100,#101,#102));
#42=CONICAL_SURFACE('',#708,2.,45.);
#43=CONICAL_SURFACE('',#709,2.,45.);
#44=CYLINDRICAL_SURFACE('',#702,2.75);
#45=CYLINDRICAL_SURFACE('',#707,1.65);
#46=CYLINDRICAL_SURFACE('',#718,0.8);
#47=CYLINDRICAL_SURFACE('',#722,0.8);
#48=CYLINDRICAL_SURFACE('',#725,1.2);
#49=CYLINDRICAL_SURFACE('',#726,0.2);
#50=CYLINDRICAL_SURFACE('',#735,0.8);
#51=CYLINDRICAL_SURFACE('',#739,0.8);
#52=CYLINDRICAL_SURFACE('',#742,1.2);
#53=CYLINDRICAL_SURFACE('',#743,0.2);
#54=FACE_BOUND('',#156,.T.);
#55=FACE_BOUND('',#157,.T.);
#56=FACE_BOUND('',#158,.T.);
#57=FACE_BOUND('',#159,.T.);
#58=FACE_BOUND('',#160,.T.);
#59=FACE_BOUND('',#161,.T.);
#60=FACE_BOUND('',#162,.T.);
#61=FACE_BOUND('',#163,.T.);
#62=FACE_BOUND('',#164,.T.);
#63=FACE_BOUND('',#165,.T.);
#64=FACE_BOUND('',#166,.T.);
#65=FACE_BOUND('',#167,.T.);
#66=FACE_BOUND('',#168,.T.);
#67=FACE_BOUND('',#169,.T.);
#68=ADVANCED_FACE('',(#126),#103,.F.);
#69=ADVANCED_FACE('',(#127),#104,.F.);
#70=ADVANCED_FACE('',(#54,#55),#105,.T.);
#71=ADVANCED_FACE('',(#56,#57),#106,.F.);
#72=ADVANCED_FACE('',(#58,#59),#44,.T.);
#73=ADVANCED_FACE('',(#60,#61),#107,.F.);
#74=ADVANCED_FACE('',(#62,#63),#45,.F.);
#75=ADVANCED_FACE('',(#64,#65),#42,.F.);
#76=ADVANCED_FACE('',(#66,#67),#43,.F.);
#77=ADVANCED_FACE('',(#128),#108,.T.);
#78=ADVANCED_FACE('',(#129),#109,.F.);
#79=ADVANCED_FACE('',(#130),#110,.F.);
#80=ADVANCED_FACE('',(#131),#111,.F.);
#81=ADVANCED_FACE('',(#132),#46,.T.);
#82=ADVANCED_FACE('',(#133),#112,.F.);
#83=ADVANCED_FACE('',(#134),#113,.F.);
#84=ADVANCED_FACE('',(#135),#114,.F.);
#85=ADVANCED_FACE('',(#136),#47,.T.);
#86=ADVANCED_FACE('',(#137),#115,.F.);
#87=ADVANCED_FACE('',(#138),#116,.F.);
#88=ADVANCED_FACE('',(#139),#48,.T.);
#89=ADVANCED_FACE('',(#140),#49,.F.);
#90=ADVANCED_FACE('',(#141),#117,.F.);
#91=ADVANCED_FACE('',(#142),#118,.T.);
#92=ADVANCED_FACE('',(#143),#119,.T.);
#93=ADVANCED_FACE('',(#144),#120,.T.);
#94=ADVANCED_FACE('',(#145),#50,.T.);
#95=ADVANCED_FACE('',(#146),#121,.T.);
#96=ADVANCED_FACE('',(#147),#122,.T.);
#97=ADVANCED_FACE('',(#148),#123,.T.);
#98=ADVANCED_FACE('',(#149),#51,.T.);
#99=ADVANCED_FACE('',(#150),#124,.T.);
#100=ADVANCED_FACE('',(#151),#125,.T.);
#101=ADVANCED_FACE('',(#152),#52,.T.);
#102=ADVANCED_FACE('',(#153),#53,.F.);
#103=PLANE('',#691);
#104=PLANE('',#696);
#105=PLANE('',#698);
#106=PLANE('',#700);
#107=PLANE('',#704);
#108=PLANE('',#712);
#109=PLANE('',#715);
#110=PLANE('',#716);
#111=PLANE('',#717);
#112=PLANE('',#719);
#113=PLANE('',#720);
#114=PLANE('',#721);
#115=PLANE('',#723);
#116=PLANE('',#724);
#117=PLANE('',#729);
#118=PLANE('',#732);
#119=PLANE('',#733);
#120=PLANE('',#734);
#121=PLANE('',#736);
#122=PLANE('',#737);
#123=PLANE('',#738);
#124=PLANE('',#740);
#125=PLANE('',#741);
#126=FACE_OUTER_BOUND('',#154,.T.);
#127=FACE_OUTER_BOUND('',#155,.T.);
#128=FACE_OUTER_BOUND('',#170,.T.);
#129=FACE_OUTER_BOUND('',#171,.T.);
#130=FACE_OUTER_BOUND('',#172,.T.);
#131=FACE_OUTER_BOUND('',#173,.T.);
#132=FACE_OUTER_BOUND('',#174,.T.);
#133=FACE_OUTER_BOUND('',#175,.T.);
#134=FACE_OUTER_BOUND('',#176,.T.);
#135=FACE_OUTER_BOUND('',#177,.T.);
#136=FACE_OUTER_BOUND('',#178,.T.);
#137=FACE_OUTER_BOUND('',#179,.T.);
#138=FACE_OUTER_BOUND('',#180,.T.);
#139=FACE_OUTER_BOUND('',#181,.T.);
#140=FACE_OUTER_BOUND('',#182,.T.);
#141=FACE_OUTER_BOUND('',#183,.T.);
#142=FACE_OUTER_BOUND('',#184,.T.);
#143=FACE_OUTER_BOUND('',#185,.T.);
#144=FACE_OUTER_BOUND('',#186,.T.);
#145=FACE_OUTER_BOUND('',#187,.T.);
#146=FACE_OUTER_BOUND('',#188,.T.);
#147=FACE_OUTER_BOUND('',#189,.T.);
#148=FACE_OUTER_BOUND('',#190,.T.);
#149=FACE_OUTER_BOUND('',#191,.T.);
#150=FACE_OUTER_BOUND('',#192,.T.);
#151=FACE_OUTER_BOUND('',#193,.T.);
#152=FACE_OUTER_BOUND('',#194,.T.);
#153=FACE_OUTER_BOUND('',#195,.T.);
#154=EDGE_LOOP('',(#218,#219,#220,#221,#222,#223,#224,#225,#226,#227,#228,
#229));
#155=EDGE_LOOP('',(#230,#231,#232,#233,#234,#235,#236,#237,#238,#239,#240,
#241));
#156=EDGE_LOOP('',(#242));
#157=EDGE_LOOP('',(#243,#244,#245,#246));
#158=EDGE_LOOP('',(#247,#248,#249,#250));
#159=EDGE_LOOP('',(#251));
#160=EDGE_LOOP('',(#252));
#161=EDGE_LOOP('',(#253));
#162=EDGE_LOOP('',(#254));
#163=EDGE_LOOP('',(#255));
#164=EDGE_LOOP('',(#256));
#165=EDGE_LOOP('',(#257));
#166=EDGE_LOOP('',(#258));
#167=EDGE_LOOP('',(#259));
#168=EDGE_LOOP('',(#260));
#169=EDGE_LOOP('',(#261));
#170=EDGE_LOOP('',(#262,#263,#264,#265,#266,#267,#268,#269,#270,#271,#272,
#273));
#171=EDGE_LOOP('',(#274,#275,#276,#277,#278,#279,#280,#281,#282,#283,#284,
#285));
#172=EDGE_LOOP('',(#286,#287,#288,#289));
#173=EDGE_LOOP('',(#290,#291,#292,#293));
#174=EDGE_LOOP('',(#294,#295,#296,#297));
#175=EDGE_LOOP('',(#298,#299,#300,#301));
#176=EDGE_LOOP('',(#302,#303,#304,#305));
#177=EDGE_LOOP('',(#306,#307,#308,#309));
#178=EDGE_LOOP('',(#310,#311,#312,#313));
#179=EDGE_LOOP('',(#314,#315,#316,#317));
#180=EDGE_LOOP('',(#318,#319,#320,#321));
#181=EDGE_LOOP('',(#322,#323,#324,#325));
#182=EDGE_LOOP('',(#326,#327,#328,#329));
#183=EDGE_LOOP('',(#330,#331,#332,#333,#334,#335,#336,#337,#338,#339,#340,
#341));
#184=EDGE_LOOP('',(#342,#343,#344,#345,#346,#347,#348,#349,#350,#351,#352,
#353));
#185=EDGE_LOOP('',(#354,#355,#356,#357));
#186=EDGE_LOOP('',(#358,#359,#360,#361));
#187=EDGE_LOOP('',(#362,#363,#364,#365));
#188=EDGE_LOOP('',(#366,#367,#368,#369));
#189=EDGE_LOOP('',(#370,#371,#372,#373));
#190=EDGE_LOOP('',(#374,#375,#376,#377));
#191=EDGE_LOOP('',(#378,#379,#380,#381));
#192=EDGE_LOOP('',(#382,#383,#384,#385));
#193=EDGE_LOOP('',(#386,#387,#388,#389));
#194=EDGE_LOOP('',(#390,#391,#392,#393));
#195=EDGE_LOOP('',(#394,#395,#396,#397));
#196=CIRCLE('',#687,1.2);
#197=CIRCLE('',#688,0.2);
#198=CIRCLE('',#689,0.2);
#199=CIRCLE('',#690,1.2);
#200=CIRCLE('',#692,0.2);
#201=CIRCLE('',#693,1.2);
#202=CIRCLE('',#694,1.2);
#203=CIRCLE('',#695,0.2);
#204=CIRCLE('',#697,2.);
#205=CIRCLE('',#699,2.75);
#206=CIRCLE('',#701,2.75);
#207=CIRCLE('',#703,2.);
#208=CIRCLE('',#705,1.65);
#209=CIRCLE('',#706,1.65);
#210=CIRCLE('',#710,0.8);
#211=CIRCLE('',#711,0.8);
#212=CIRCLE('',#713,0.8);
#213=CIRCLE('',#714,0.8);
#214=CIRCLE('',#727,0.8);
#215=CIRCLE('',#728,0.8);
#216=CIRCLE('',#730,0.8);
#217=CIRCLE('',#731,0.8);
#218=ORIENTED_EDGE('',*,*,#460,.F.);
#219=ORIENTED_EDGE('',*,*,#461,.F.);
#220=ORIENTED_EDGE('',*,*,#462,.T.);
#221=ORIENTED_EDGE('',*,*,#463,.T.);
#222=ORIENTED_EDGE('',*,*,#464,.F.);
#223=ORIENTED_EDGE('',*,*,#465,.T.);
#224=ORIENTED_EDGE('',*,*,#466,.T.);
#225=ORIENTED_EDGE('',*,*,#467,.T.);
#226=ORIENTED_EDGE('',*,*,#468,.T.);
#227=ORIENTED_EDGE('',*,*,#469,.F.);
#228=ORIENTED_EDGE('',*,*,#470,.F.);
#229=ORIENTED_EDGE('',*,*,#471,.F.);
#230=ORIENTED_EDGE('',*,*,#472,.T.);
#231=ORIENTED_EDGE('',*,*,#473,.T.);
#232=ORIENTED_EDGE('',*,*,#474,.F.);
#233=ORIENTED_EDGE('',*,*,#475,.F.);
#234=ORIENTED_EDGE('',*,*,#476,.T.);
#235=ORIENTED_EDGE('',*,*,#477,.F.);
#236=ORIENTED_EDGE('',*,*,#478,.F.);
#237=ORIENTED_EDGE('',*,*,#479,.F.);
#238=ORIENTED_EDGE('',*,*,#480,.F.);
#239=ORIENTED_EDGE('',*,*,#481,.T.);
#240=ORIENTED_EDGE('',*,*,#482,.T.);
#241=ORIENTED_EDGE('',*,*,#483,.T.);
#242=ORIENTED_EDGE('',*,*,#484,.T.);
#243=ORIENTED_EDGE('',*,*,#478,.T.);
#244=ORIENTED_EDGE('',*,*,#485,.T.);
#245=ORIENTED_EDGE('',*,*,#460,.T.);
#246=ORIENTED_EDGE('',*,*,#486,.T.);
#247=ORIENTED_EDGE('',*,*,#487,.F.);
#248=ORIENTED_EDGE('',*,*,#472,.F.);
#249=ORIENTED_EDGE('',*,*,#488,.F.);
#250=ORIENTED_EDGE('',*,*,#466,.F.);
#251=ORIENTED_EDGE('',*,*,#489,.T.);
#252=ORIENTED_EDGE('',*,*,#490,.T.);
#253=ORIENTED_EDGE('',*,*,#489,.F.);
#254=ORIENTED_EDGE('',*,*,#491,.T.);
#255=ORIENTED_EDGE('',*,*,#490,.F.);
#256=ORIENTED_EDGE('',*,*,#492,.T.);
#257=ORIENTED_EDGE('',*,*,#493,.T.);
#258=ORIENTED_EDGE('',*,*,#493,.F.);
#259=ORIENTED_EDGE('',*,*,#484,.F.);
#260=ORIENTED_EDGE('',*,*,#492,.F.);
#261=ORIENTED_EDGE('',*,*,#491,.F.);
#262=ORIENTED_EDGE('',*,*,#480,.T.);
#263=ORIENTED_EDGE('',*,*,#494,.T.);
#264=ORIENTED_EDGE('',*,*,#470,.T.);
#265=ORIENTED_EDGE('',*,*,#495,.T.);
#266=ORIENTED_EDGE('',*,*,#496,.T.);
#267=ORIENTED_EDGE('',*,*,#497,.T.);
#268=ORIENTED_EDGE('',*,*,#498,.T.);
#269=ORIENTED_EDGE('',*,*,#499,.T.);
#270=ORIENTED_EDGE('',*,*,#500,.T.);
#271=ORIENTED_EDGE('',*,*,#501,.T.);
#272=ORIENTED_EDGE('',*,*,#502,.T.);
#273=ORIENTED_EDGE('',*,*,#503,.T.);
#274=ORIENTED_EDGE('',*,*,#504,.F.);
#275=ORIENTED_EDGE('',*,*,#482,.F.);
#276=ORIENTED_EDGE('',*,*,#505,.F.);
#277=ORIENTED_EDGE('',*,*,#506,.F.);
#278=ORIENTED_EDGE('',*,*,#507,.F.);
#279=ORIENTED_EDGE('',*,*,#508,.F.);
#280=ORIENTED_EDGE('',*,*,#509,.F.);
#281=ORIENTED_EDGE('',*,*,#510,.F.);
#282=ORIENTED_EDGE('',*,*,#511,.F.);
#283=ORIENTED_EDGE('',*,*,#512,.F.);
#284=ORIENTED_EDGE('',*,*,#513,.F.);
#285=ORIENTED_EDGE('',*,*,#468,.F.);
#286=ORIENTED_EDGE('',*,*,#513,.T.);
#287=ORIENTED_EDGE('',*,*,#514,.F.);
#288=ORIENTED_EDGE('',*,*,#495,.F.);
#289=ORIENTED_EDGE('',*,*,#469,.T.);
#290=ORIENTED_EDGE('',*,*,#512,.T.);
#291=ORIENTED_EDGE('',*,*,#515,.F.);
#292=ORIENTED_EDGE('',*,*,#496,.F.);
#293=ORIENTED_EDGE('',*,*,#514,.T.);
#294=ORIENTED_EDGE('',*,*,#511,.T.);
#295=ORIENTED_EDGE('',*,*,#516,.F.);
#296=ORIENTED_EDGE('',*,*,#497,.F.);
#297=ORIENTED_EDGE('',*,*,#515,.T.);
#298=ORIENTED_EDGE('',*,*,#510,.T.);
#299=ORIENTED_EDGE('',*,*,#517,.F.);
#300=ORIENTED_EDGE('',*,*,#498,.F.);
#301=ORIENTED_EDGE('',*,*,#516,.T.);
#302=ORIENTED_EDGE('',*,*,#509,.T.);
#303=ORIENTED_EDGE('',*,*,#518,.F.);
#304=ORIENTED_EDGE('',*,*,#499,.F.);
#305=ORIENTED_EDGE('',*,*,#517,.T.);
#306=ORIENTED_EDGE('',*,*,#508,.T.);
#307=ORIENTED_EDGE('',*,*,#519,.F.);
#308=ORIENTED_EDGE('',*,*,#500,.F.);
#309=ORIENTED_EDGE('',*,*,#518,.T.);
#310=ORIENTED_EDGE('',*,*,#507,.T.);
#311=ORIENTED_EDGE('',*,*,#520,.F.);
#312=ORIENTED_EDGE('',*,*,#501,.F.);
#313=ORIENTED_EDGE('',*,*,#519,.T.);
#314=ORIENTED_EDGE('',*,*,#506,.T.);
#315=ORIENTED_EDGE('',*,*,#521,.F.);
#316=ORIENTED_EDGE('',*,*,#502,.F.);
#317=ORIENTED_EDGE('',*,*,#520,.T.);
#318=ORIENTED_EDGE('',*,*,#505,.T.);
#319=ORIENTED_EDGE('',*,*,#481,.F.);
#320=ORIENTED_EDGE('',*,*,#503,.F.);
#321=ORIENTED_EDGE('',*,*,#521,.T.);
#322=ORIENTED_EDGE('',*,*,#486,.F.);
#323=ORIENTED_EDGE('',*,*,#471,.T.);
#324=ORIENTED_EDGE('',*,*,#494,.F.);
#325=ORIENTED_EDGE('',*,*,#479,.T.);
#326=ORIENTED_EDGE('',*,*,#488,.T.);
#327=ORIENTED_EDGE('',*,*,#483,.F.);
#328=ORIENTED_EDGE('',*,*,#504,.T.);
#329=ORIENTED_EDGE('',*,*,#467,.F.);
#330=ORIENTED_EDGE('',*,*,#522,.F.);
#331=ORIENTED_EDGE('',*,*,#476,.F.);
#332=ORIENTED_EDGE('',*,*,#523,.F.);
#333=ORIENTED_EDGE('',*,*,#524,.F.);
#334=ORIENTED_EDGE('',*,*,#525,.F.);
#335=ORIENTED_EDGE('',*,*,#526,.F.);
#336=ORIENTED_EDGE('',*,*,#527,.F.);
#337=ORIENTED_EDGE('',*,*,#528,.F.);
#338=ORIENTED_EDGE('',*,*,#529,.F.);
#339=ORIENTED_EDGE('',*,*,#530,.F.);
#340=ORIENTED_EDGE('',*,*,#531,.F.);
#341=ORIENTED_EDGE('',*,*,#462,.F.);
#342=ORIENTED_EDGE('',*,*,#474,.T.);
#343=ORIENTED_EDGE('',*,*,#532,.T.);
#344=ORIENTED_EDGE('',*,*,#464,.T.);
#345=ORIENTED_EDGE('',*,*,#533,.T.);
#346=ORIENTED_EDGE('',*,*,#534,.T.);
#347=ORIENTED_EDGE('',*,*,#535,.T.);
#348=ORIENTED_EDGE('',*,*,#536,.T.);
#349=ORIENTED_EDGE('',*,*,#537,.T.);
#350=ORIENTED_EDGE('',*,*,#538,.T.);
#351=ORIENTED_EDGE('',*,*,#539,.T.);
#352=ORIENTED_EDGE('',*,*,#540,.T.);
#353=ORIENTED_EDGE('',*,*,#541,.T.);
#354=ORIENTED_EDGE('',*,*,#541,.F.);
#355=ORIENTED_EDGE('',*,*,#542,.F.);
#356=ORIENTED_EDGE('',*,*,#523,.T.);
#357=ORIENTED_EDGE('',*,*,#475,.T.);
#358=ORIENTED_EDGE('',*,*,#540,.F.);
#359=ORIENTED_EDGE('',*,*,#543,.F.);
#360=ORIENTED_EDGE('',*,*,#524,.T.);
#361=ORIENTED_EDGE('',*,*,#542,.T.);
#362=ORIENTED_EDGE('',*,*,#539,.F.);
#363=ORIENTED_EDGE('',*,*,#544,.F.);
#364=ORIENTED_EDGE('',*,*,#525,.T.);
#365=ORIENTED_EDGE('',*,*,#543,.T.);
#366=ORIENTED_EDGE('',*,*,#538,.F.);
#367=ORIENTED_EDGE('',*,*,#545,.F.);
#368=ORIENTED_EDGE('',*,*,#526,.T.);
#369=ORIENTED_EDGE('',*,*,#544,.T.);
#370=ORIENTED_EDGE('',*,*,#537,.F.);
#371=ORIENTED_EDGE('',*,*,#546,.F.);
#372=ORIENTED_EDGE('',*,*,#527,.T.);
#373=ORIENTED_EDGE('',*,*,#545,.T.);
#374=ORIENTED_EDGE('',*,*,#536,.F.);
#375=ORIENTED_EDGE('',*,*,#547,.F.);
#376=ORIENTED_EDGE('',*,*,#528,.T.);
#377=ORIENTED_EDGE('',*,*,#546,.T.);
#378=ORIENTED_EDGE('',*,*,#535,.F.);
#379=ORIENTED_EDGE('',*,*,#548,.F.);
#380=ORIENTED_EDGE('',*,*,#529,.T.);
#381=ORIENTED_EDGE('',*,*,#547,.T.);
#382=ORIENTED_EDGE('',*,*,#534,.F.);
#383=ORIENTED_EDGE('',*,*,#549,.F.);
#384=ORIENTED_EDGE('',*,*,#530,.T.);
#385=ORIENTED_EDGE('',*,*,#548,.T.);
#386=ORIENTED_EDGE('',*,*,#533,.F.);
#387=ORIENTED_EDGE('',*,*,#463,.F.);
#388=ORIENTED_EDGE('',*,*,#531,.T.);
#389=ORIENTED_EDGE('',*,*,#549,.T.);
#390=ORIENTED_EDGE('',*,*,#485,.F.);
#391=ORIENTED_EDGE('',*,*,#477,.T.);
#392=ORIENTED_EDGE('',*,*,#522,.T.);
#393=ORIENTED_EDGE('',*,*,#461,.T.);
#394=ORIENTED_EDGE('',*,*,#487,.T.);
#395=ORIENTED_EDGE('',*,*,#465,.F.);
#396=ORIENTED_EDGE('',*,*,#532,.F.);
#397=ORIENTED_EDGE('',*,*,#473,.F.);
#398=VERTEX_POINT('',#930);
#399=VERTEX_POINT('',#931);
#400=VERTEX_POINT('',#933);
#401=VERTEX_POINT('',#935);
#402=VERTEX_POINT('',#937);
#403=VERTEX_POINT('',#939);
#404=VERTEX_POINT('',#941);
#405=VERTEX_POINT('',#943);
#406=VERTEX_POINT('',#945);
#407=VERTEX_POINT('',#947);
#408=VERTEX_POINT('',#949);
#409=VERTEX_POINT('',#951);
#410=VERTEX_POINT('',#955);
#411=VERTEX_POINT('',#956);
#412=VERTEX_POINT('',#958);
#413=VERTEX_POINT('',#960);
#414=VERTEX_POINT('',#962);
#415=VERTEX_POINT('',#964);
#416=VERTEX_POINT('',#966);
#417=VERTEX_POINT('',#968);
#418=VERTEX_POINT('',#970);
#419=VERTEX_POINT('',#972);
#420=VERTEX_POINT('',#974);
#421=VERTEX_POINT('',#976);
#422=VERTEX_POINT('',#980);
#423=VERTEX_POINT('',#987);
#424=VERTEX_POINT('',#990);
#425=VERTEX_POINT('',#993);
#426=VERTEX_POINT('',#996);
#427=VERTEX_POINT('',#998);
#428=VERTEX_POINT('',#1004);
#429=VERTEX_POINT('',#1006);
#430=VERTEX_POINT('',#1008);
#431=VERTEX_POINT('',#1010);
#432=VERTEX_POINT('',#1012);
#433=VERTEX_POINT('',#1014);
#434=VERTEX_POINT('',#1016);
#435=VERTEX_POINT('',#1018);
#436=VERTEX_POINT('',#1023);
#437=VERTEX_POINT('',#1025);
#438=VERTEX_POINT('',#1027);
#439=VERTEX_POINT('',#1029);
#440=VERTEX_POINT('',#1031);
#441=VERTEX_POINT('',#1033);
#442=VERTEX_POINT('',#1035);
#443=VERTEX_POINT('',#1037);
#444=VERTEX_POINT('',#1061);
#445=VERTEX_POINT('',#1063);
#446=VERTEX_POINT('',#1065);
#447=VERTEX_POINT('',#1067);
#448=VERTEX_POINT('',#1069);
#449=VERTEX_POINT('',#1071);
#450=VERTEX_POINT('',#1073);
#451=VERTEX_POINT('',#1075);
#452=VERTEX_POINT('',#1080);
#453=VERTEX_POINT('',#1082);
#454=VERTEX_POINT('',#1084);
#455=VERTEX_POINT('',#1086);
#456=VERTEX_POINT('',#1088);
#457=VERTEX_POINT('',#1090);
#458=VERTEX_POINT('',#1092);
#459=VERTEX_POINT('',#1094);
#460=EDGE_CURVE('',#398,#399,#550,.T.);
#461=EDGE_CURVE('',#400,#398,#196,.T.);
#462=EDGE_CURVE('',#400,#401,#551,.T.);
#463=EDGE_CURVE('',#401,#402,#552,.T.);
#464=EDGE_CURVE('',#403,#402,#553,.T.);
#465=EDGE_CURVE('',#403,#404,#197,.T.);
#466=EDGE_CURVE('',#404,#405,#554,.T.);
#467=EDGE_CURVE('',#405,#406,#198,.T.);
#468=EDGE_CURVE('',#406,#407,#555,.T.);
#469=EDGE_CURVE('',#408,#407,#556,.T.);
#470=EDGE_CURVE('',#409,#408,#557,.T.);
#471=EDGE_CURVE('',#399,#409,#199,.T.);
#472=EDGE_CURVE('',#410,#411,#558,.T.);
#473=EDGE_CURVE('',#411,#412,#200,.T.);
#474=EDGE_CURVE('',#413,#412,#559,.T.);
#475=EDGE_CURVE('',#414,#413,#560,.T.);
#476=EDGE_CURVE('',#414,#415,#561,.T.);
#477=EDGE_CURVE('',#416,#415,#201,.T.);
#478=EDGE_CURVE('',#417,#416,#562,.T.);
#479=EDGE_CURVE('',#418,#417,#202,.T.);
#480=EDGE_CURVE('',#419,#418,#563,.T.);
#481=EDGE_CURVE('',#419,#420,#564,.T.);
#482=EDGE_CURVE('',#420,#421,#565,.T.);
#483=EDGE_CURVE('',#421,#410,#203,.T.);
#484=EDGE_CURVE('',#422,#422,#204,.T.);
#485=EDGE_CURVE('',#416,#398,#566,.T.);
#486=EDGE_CURVE('',#399,#417,#567,.T.);
#487=EDGE_CURVE('',#411,#404,#568,.T.);
#488=EDGE_CURVE('',#405,#410,#569,.T.);
#489=EDGE_CURVE('',#423,#423,#205,.T.);
#490=EDGE_CURVE('',#424,#424,#206,.T.);
#491=EDGE_CURVE('',#425,#425,#207,.T.);
#492=EDGE_CURVE('',#426,#426,#208,.T.);
#493=EDGE_CURVE('',#427,#427,#209,.T.);
#494=EDGE_CURVE('',#418,#409,#570,.T.);
#495=EDGE_CURVE('',#408,#428,#571,.T.);
#496=EDGE_CURVE('',#428,#429,#572,.T.);
#497=EDGE_CURVE('',#429,#430,#210,.T.);
#498=EDGE_CURVE('',#430,#431,#573,.T.);
#499=EDGE_CURVE('',#431,#432,#574,.T.);
#500=EDGE_CURVE('',#432,#433,#575,.T.);
#501=EDGE_CURVE('',#433,#434,#211,.T.);
#502=EDGE_CURVE('',#434,#435,#576,.T.);
#503=EDGE_CURVE('',#435,#419,#577,.T.);
#504=EDGE_CURVE('',#421,#406,#578,.T.);
#505=EDGE_CURVE('',#436,#420,#579,.T.);
#506=EDGE_CURVE('',#437,#436,#580,.T.);
#507=EDGE_CURVE('',#438,#437,#212,.T.);
#508=EDGE_CURVE('',#439,#438,#581,.T.);
#509=EDGE_CURVE('',#440,#439,#582,.T.);
#510=EDGE_CURVE('',#441,#440,#583,.T.);
#511=EDGE_CURVE('',#442,#441,#213,.T.);
#512=EDGE_CURVE('',#443,#442,#584,.T.);
#513=EDGE_CURVE('',#407,#443,#585,.T.);
#514=EDGE_CURVE('',#428,#443,#586,.T.);
#515=EDGE_CURVE('',#429,#442,#587,.T.);
#516=EDGE_CURVE('',#430,#441,#588,.T.);
#517=EDGE_CURVE('',#431,#440,#589,.T.);
#518=EDGE_CURVE('',#432,#439,#590,.T.);
#519=EDGE_CURVE('',#433,#438,#591,.T.);
#520=EDGE_CURVE('',#434,#437,#592,.T.);
#521=EDGE_CURVE('',#435,#436,#593,.T.);
#522=EDGE_CURVE('',#415,#400,#594,.T.);
#523=EDGE_CURVE('',#444,#414,#595,.T.);
#524=EDGE_CURVE('',#445,#444,#596,.T.);
#525=EDGE_CURVE('',#446,#445,#214,.T.);
#526=EDGE_CURVE('',#447,#446,#597,.T.);
#527=EDGE_CURVE('',#448,#447,#598,.T.);
#528=EDGE_CURVE('',#449,#448,#599,.T.);
#529=EDGE_CURVE('',#450,#449,#215,.T.);
#530=EDGE_CURVE('',#451,#450,#600,.T.);
#531=EDGE_CURVE('',#401,#451,#601,.T.);
#532=EDGE_CURVE('',#412,#403,#602,.T.);
#533=EDGE_CURVE('',#402,#452,#603,.T.);
#534=EDGE_CURVE('',#452,#453,#604,.T.);
#535=EDGE_CURVE('',#453,#454,#216,.T.);
#536=EDGE_CURVE('',#454,#455,#605,.T.);
#537=EDGE_CURVE('',#455,#456,#606,.T.);
#538=EDGE_CURVE('',#456,#457,#607,.T.);
#539=EDGE_CURVE('',#457,#458,#217,.T.);
#540=EDGE_CURVE('',#458,#459,#608,.T.);
#541=EDGE_CURVE('',#459,#413,#609,.T.);
#542=EDGE_CURVE('',#444,#459,#610,.T.);
#543=EDGE_CURVE('',#445,#458,#611,.T.);
#544=EDGE_CURVE('',#446,#457,#612,.T.);
#545=EDGE_CURVE('',#447,#456,#613,.T.);
#546=EDGE_CURVE('',#448,#455,#614,.T.);
#547=EDGE_CURVE('',#449,#454,#615,.T.);
#548=EDGE_CURVE('',#450,#453,#616,.T.);
#549=EDGE_CURVE('',#451,#452,#617,.T.);
#550=LINE('',#929,#618);
#551=LINE('',#934,#619);
#552=LINE('',#936,#620);
#553=LINE('',#938,#621);
#554=LINE('',#942,#622);
#555=LINE('',#946,#623);
#556=LINE('',#948,#624);
#557=LINE('',#950,#625);
#558=LINE('',#954,#626);
#559=LINE('',#959,#627);
#560=LINE('',#961,#628);
#561=LINE('',#963,#629);
#562=LINE('',#967,#630);
#563=LINE('',#971,#631);
#564=LINE('',#973,#632);
#565=LINE('',#975,#633);
#566=LINE('',#981,#634);
#567=LINE('',#982,#635);
#568=LINE('',#984,#636);
#569=LINE('',#985,#637);
#570=LINE('',#1002,#638);
#571=LINE('',#1003,#639);
#572=LINE('',#1005,#640);
#573=LINE('',#1009,#641);
#574=LINE('',#1011,#642);
#575=LINE('',#1013,#643);
#576=LINE('',#1017,#644);
#577=LINE('',#1019,#645);
#578=LINE('',#1021,#646);
#579=LINE('',#1022,#647);
#580=LINE('',#1024,#648);
#581=LINE('',#1028,#649);
#582=LINE('',#1030,#650);
#583=LINE('',#1032,#651);
#584=LINE('',#1036,#652);
#585=LINE('',#1038,#653);
#586=LINE('',#1040,#654);
#587=LINE('',#1042,#655);
#588=LINE('',#1044,#656);
#589=LINE('',#1046,#657);
#590=LINE('',#1048,#658);
#591=LINE('',#1050,#659);
#592=LINE('',#1052,#660);
#593=LINE('',#1054,#661);
#594=LINE('',#1059,#662);
#595=LINE('',#1060,#663);
#596=LINE('',#1062,#664);
#597=LINE('',#1066,#665);
#598=LINE('',#1068,#666);
#599=LINE('',#1070,#667);
#600=LINE('',#1074,#668);
#601=LINE('',#1076,#669);
#602=LINE('',#1078,#670);
#603=LINE('',#1079,#671);
#604=LINE('',#1081,#672);
#605=LINE('',#1085,#673);
#606=LINE('',#1087,#674);
#607=LINE('',#1089,#675);
#608=LINE('',#1093,#676);
#609=LINE('',#1095,#677);
#610=LINE('',#1097,#678);
#611=LINE('',#1099,#679);
#612=LINE('',#1101,#680);
#613=LINE('',#1103,#681);
#614=LINE('',#1105,#682);
#615=LINE('',#1107,#683);
#616=LINE('',#1109,#684);
#617=LINE('',#1111,#685);
#618=VECTOR('',#746,1.);
#619=VECTOR('',#749,1.);
#620=VECTOR('',#750,1.);
#621=VECTOR('',#751,1.);
#622=VECTOR('',#754,1.);
#623=VECTOR('',#757,1.);
#624=VECTOR('',#758,1.);
#625=VECTOR('',#759,1.);
#626=VECTOR('',#764,1.);
#627=VECTOR('',#767,1.);
#628=VECTOR('',#768,1.);
#629=VECTOR('',#769,1.);
#630=VECTOR('',#772,1.);
#631=VECTOR('',#775,1.);
#632=VECTOR('',#776,1.);
#633=VECTOR('',#777,1.);
#634=VECTOR('',#784,1.);
#635=VECTOR('',#785,1.);
#636=VECTOR('',#788,1.);
#637=VECTOR('',#789,1.);
#638=VECTOR('',#812,1.);
#639=VECTOR('',#813,1.);
#640=VECTOR('',#814,1.);
#641=VECTOR('',#817,1.);
#642=VECTOR('',#818,1.);
#643=VECTOR('',#819,1.);
#644=VECTOR('',#822,1.);
#645=VECTOR('',#823,1.);
#646=VECTOR('',#826,1.);
#647=VECTOR('',#827,1.);
#648=VECTOR('',#828,1.);
#649=VECTOR('',#831,1.);
#650=VECTOR('',#832,1.);
#651=VECTOR('',#833,1.);
#652=VECTOR('',#836,1.);
#653=VECTOR('',#837,1.);
#654=VECTOR('',#840,1.);
#655=VECTOR('',#843,1.);
#656=VECTOR('',#846,1.);
#657=VECTOR('',#849,1.);
#658=VECTOR('',#852,1.);
#659=VECTOR('',#855,1.);
#660=VECTOR('',#858,1.);
#661=VECTOR('',#861,1.);
#662=VECTOR('',#870,1.);
#663=VECTOR('',#871,1.);
#664=VECTOR('',#872,1.);
#665=VECTOR('',#875,1.);
#666=VECTOR('',#876,1.);
#667=VECTOR('',#877,1.);
#668=VECTOR('',#880,1.);
#669=VECTOR('',#881,1.);
#670=VECTOR('',#884,1.);
#671=VECTOR('',#885,1.);
#672=VECTOR('',#886,1.);
#673=VECTOR('',#889,1.);
#674=VECTOR('',#890,1.);
#675=VECTOR('',#891,1.);
#676=VECTOR('',#894,1.);
#677=VECTOR('',#895,1.);
#678=VECTOR('',#898,1.);
#679=VECTOR('',#901,1.);
#680=VECTOR('',#904,1.);
#681=VECTOR('',#907,1.);
#682=VECTOR('',#910,1.);
#683=VECTOR('',#913,1.);
#684=VECTOR('',#916,1.);
#685=VECTOR('',#919,1.);
#686=AXIS2_PLACEMENT_3D('',#928,#744,#745);
#687=AXIS2_PLACEMENT_3D('',#932,#747,#748);
#688=AXIS2_PLACEMENT_3D('',#940,#752,#753);
#689=AXIS2_PLACEMENT_3D('',#944,#755,#756);
#690=AXIS2_PLACEMENT_3D('',#952,#760,#761);
#691=AXIS2_PLACEMENT_3D('',#953,#762,#763);
#692=AXIS2_PLACEMENT_3D('',#957,#765,#766);
#693=AXIS2_PLACEMENT_3D('',#965,#770,#771);
#694=AXIS2_PLACEMENT_3D('',#969,#773,#774);
#695=AXIS2_PLACEMENT_3D('',#977,#778,#779);
#696=AXIS2_PLACEMENT_3D('',#978,#780,#781);
#697=AXIS2_PLACEMENT_3D('',#979,#782,#783);
#698=AXIS2_PLACEMENT_3D('',#983,#786,#787);
#699=AXIS2_PLACEMENT_3D('',#986,#790,#791);
#700=AXIS2_PLACEMENT_3D('',#988,#792,#793);
#701=AXIS2_PLACEMENT_3D('',#989,#794,#795);
#702=AXIS2_PLACEMENT_3D('',#991,#796,#797);
#703=AXIS2_PLACEMENT_3D('',#992,#798,#799);
#704=AXIS2_PLACEMENT_3D('',#994,#800,#801);
#705=AXIS2_PLACEMENT_3D('',#995,#802,#803);
#706=AXIS2_PLACEMENT_3D('',#997,#804,#805);
#707=AXIS2_PLACEMENT_3D('',#999,#806,#807);
#708=AXIS2_PLACEMENT_3D('',#1000,#808,#809);
#709=AXIS2_PLACEMENT_3D('',#1001,#810,#811);
#710=AXIS2_PLACEMENT_3D('',#1007,#815,#816);
#711=AXIS2_PLACEMENT_3D('',#1015,#820,#821);
#712=AXIS2_PLACEMENT_3D('',#1020,#824,#825);
#713=AXIS2_PLACEMENT_3D('',#1026,#829,#830);
#714=AXIS2_PLACEMENT_3D('',#1034,#834,#835);
#715=AXIS2_PLACEMENT_3D('',#1039,#838,#839);
#716=AXIS2_PLACEMENT_3D('',#1041,#841,#842);
#717=AXIS2_PLACEMENT_3D('',#1043,#844,#845);
#718=AXIS2_PLACEMENT_3D('',#1045,#847,#848);
#719=AXIS2_PLACEMENT_3D('',#1047,#850,#851);
#720=AXIS2_PLACEMENT_3D('',#1049,#853,#854);
#721=AXIS2_PLACEMENT_3D('',#1051,#856,#857);
#722=AXIS2_PLACEMENT_3D('',#1053,#859,#860);
#723=AXIS2_PLACEMENT_3D('',#1055,#862,#863);
#724=AXIS2_PLACEMENT_3D('',#1056,#864,#865);
#725=AXIS2_PLACEMENT_3D('',#1057,#866,#867);
#726=AXIS2_PLACEMENT_3D('',#1058,#868,#869);
#727=AXIS2_PLACEMENT_3D('',#1064,#873,#874);
#728=AXIS2_PLACEMENT_3D('',#1072,#878,#879);
#729=AXIS2_PLACEMENT_3D('',#1077,#882,#883);
#730=AXIS2_PLACEMENT_3D('',#1083,#887,#888);
#731=AXIS2_PLACEMENT_3D('',#1091,#892,#893);
#732=AXIS2_PLACEMENT_3D('',#1096,#896,#897);
#733=AXIS2_PLACEMENT_3D('',#1098,#899,#900);
#734=AXIS2_PLACEMENT_3D('',#1100,#902,#903);
#735=AXIS2_PLACEMENT_3D('',#1102,#905,#906);
#736=AXIS2_PLACEMENT_3D('',#1104,#908,#909);
#737=AXIS2_PLACEMENT_3D('',#1106,#911,#912);
#738=AXIS2_PLACEMENT_3D('',#1108,#914,#915);
#739=AXIS2_PLACEMENT_3D('',#1110,#917,#918);
#740=AXIS2_PLACEMENT_3D('',#1112,#920,#921);
#741=AXIS2_PLACEMENT_3D('',#1113,#922,#923);
#742=AXIS2_PLACEMENT_3D('',#1114,#924,#925);
#743=AXIS2_PLACEMENT_3D('',#1115,#926,#927);
#744=DIRECTION('',(0.,0.,1.));
#745=DIRECTION('',(1.,0.,0.));
#746=DIRECTION('',(-1.56281394232145E-16,-1.,0.));
#747=DIRECTION('',(1.,0.,0.));
#748=DIRECTION('',(0.,0.,-1.));
#749=DIRECTION('',(1.12406998026415E-16,0.,-1.));
#750=DIRECTION('',(2.54822594101211E-31,-1.,-1.12406998026415E-16));
#751=DIRECTION('',(1.12406998026415E-16,0.,-1.));
#752=DIRECTION('',(1.,0.,0.));
#753=DIRECTION('',(0.,0.,1.));
#754=DIRECTION('',(-1.56281394232145E-16,-1.,0.));
#755=DIRECTION('',(1.,0.,0.));
#756=DIRECTION('',(0.,0.,-1.));
#757=DIRECTION('',(1.12406998026415E-16,-1.12406998026415E-16,-1.));
#758=DIRECTION('',(0.,1.,0.));
#759=DIRECTION('',(1.12406998026415E-16,-1.12406998026415E-16,-1.));
#760=DIRECTION('',(1.,0.,0.));
#761=DIRECTION('',(0.,0.,-1.));
#762=DIRECTION('',(1.,-1.56281394232145E-16,0.));
#763=DIRECTION('',(1.56125112837913E-16,1.,0.));
#764=DIRECTION('',(-1.56281394232145E-16,1.,0.));
#765=DIRECTION('',(-1.,0.,0.));
#766=DIRECTION('',(0.,0.,1.));
#767=DIRECTION('',(0.,0.,1.));
#768=DIRECTION('',(2.54822594101211E-31,-1.,-1.12406998026415E-16));
#769=DIRECTION('',(0.,0.,1.));
#770=DIRECTION('',(-1.,0.,0.));
#771=DIRECTION('',(0.,0.,-1.));
#772=DIRECTION('',(-1.56281394232145E-16,1.,0.));
#773=DIRECTION('',(-1.,0.,0.));
#774=DIRECTION('',(0.,0.,-1.));
#775=DIRECTION('',(0.,1.12406998026415E-16,1.));
#776=DIRECTION('',(0.,1.,0.));
#777=DIRECTION('',(0.,1.12406998026415E-16,1.));
#778=DIRECTION('',(-1.,0.,0.));
#779=DIRECTION('',(0.,0.,-1.));
#780=DIRECTION('',(-1.,-1.56281394232145E-16,0.));
#781=DIRECTION('',(1.56125112837913E-16,-1.,0.));
#782=DIRECTION('',(0.,0.,-1.));
#783=DIRECTION('',(1.,0.,0.));
#784=DIRECTION('',(-1.,0.,0.));
#785=DIRECTION('',(1.,0.,0.));
#786=DIRECTION('',(0.,0.,1.));
#787=DIRECTION('',(1.,0.,0.));
#788=DIRECTION('',(-1.,0.,0.));
#789=DIRECTION('',(1.,0.,0.));
#790=DIRECTION('',(0.,0.,1.));
#791=DIRECTION('',(1.,0.,0.));
#792=DIRECTION('',(0.,0.,1.));
#793=DIRECTION('',(1.,0.,0.));
#794=DIRECTION('',(0.,0.,1.));
#795=DIRECTION('',(1.,0.,0.));
#796=DIRECTION('',(0.,0.,1.));
#797=DIRECTION('',(1.,0.,0.));
#798=DIRECTION('',(0.,0.,1.));
#799=DIRECTION('',(1.,0.,0.));
#800=DIRECTION('',(0.,0.,1.));
#801=DIRECTION('',(1.,0.,0.));
#802=DIRECTION('',(0.,0.,-1.));
#803=DIRECTION('',(1.,0.,0.));
#804=DIRECTION('',(0.,0.,1.));
#805=DIRECTION('',(1.,0.,0.));
#806=DIRECTION('',(0.,0.,-1.));
#807=DIRECTION('',(-1.,0.,0.));
#808=DIRECTION('',(0.,0.,1.));
#809=DIRECTION('',(1.,0.,-1.0993507058336E-16));
#810=DIRECTION('',(0.,0.,-1.));
#811=DIRECTION('',(-1.,0.,5.41019048146459E-17));
#812=DIRECTION('',(-1.,0.,-1.12937726300573E-17));
#813=DIRECTION('',(1.,0.,0.));
#814=DIRECTION('',(0.,0.,-1.));
#815=DIRECTION('',(0.,-1.,6.12323399573677E-17));
#816=DIRECTION('',(-1.,0.,0.));
#817=DIRECTION('',(-6.7762635780344E-17,0.,1.));
#818=DIRECTION('',(1.,0.,0.));
#819=DIRECTION('',(1.35525271560688E-16,0.,-1.));
#820=DIRECTION('',(0.,-1.,6.12323399573677E-17));
#821=DIRECTION('',(-1.,0.,0.));
#822=DIRECTION('',(1.35525271560688E-16,0.,1.));
#823=DIRECTION('',(1.,0.,0.));
#824=DIRECTION('',(0.,-1.,6.12323399573677E-17));
#825=DIRECTION('',(0.,-6.15826833971767E-17,-1.));
#826=DIRECTION('',(-1.,0.,-1.12937726300573E-17));
#827=DIRECTION('',(1.,0.,0.));
#828=DIRECTION('',(1.35525271560688E-16,0.,1.));
#829=DIRECTION('',(0.,-1.,6.12323399573677E-17));
#830=DIRECTION('',(-1.,0.,0.));
#831=DIRECTION('',(1.35525271560688E-16,0.,-1.));
#832=DIRECTION('',(1.,0.,0.));
#833=DIRECTION('',(-6.7762635780344E-17,0.,1.));
#834=DIRECTION('',(0.,-1.,6.12323399573677E-17));
#835=DIRECTION('',(-1.,0.,0.));
#836=DIRECTION('',(0.,0.,-1.));
#837=DIRECTION('',(1.,0.,0.));
#838=DIRECTION('',(0.,-1.,6.12323399573677E-17));
#839=DIRECTION('',(0.,-6.15826833971767E-17,-1.));
#840=DIRECTION('',(0.,1.,0.));
#841=DIRECTION('',(0.,0.,1.));
#842=DIRECTION('',(1.,0.,0.));
#843=DIRECTION('',(0.,1.,0.));
#844=DIRECTION('',(1.,0.,0.));
#845=DIRECTION('',(0.,0.,-1.));
#846=DIRECTION('',(0.,1.,0.));
#847=DIRECTION('',(0.,1.,0.));
#848=DIRECTION('',(0.,0.,1.));
#849=DIRECTION('',(0.,1.,0.));
#850=DIRECTION('',(-1.,0.,-6.7762635780344E-17));
#851=DIRECTION('',(-6.78710559975926E-17,0.,1.));
#852=DIRECTION('',(0.,1.,0.));
#853=DIRECTION('',(0.,0.,1.));
#854=DIRECTION('',(1.,0.,0.));
#855=DIRECTION('',(0.,1.,0.));
#856=DIRECTION('',(1.,0.,1.35525271560688E-16));
#857=DIRECTION('',(1.35525271560688E-16,0.,-1.));
#858=DIRECTION('',(0.,1.,0.));
#859=DIRECTION('',(0.,1.,0.));
#860=DIRECTION('',(0.,0.,1.));
#861=DIRECTION('',(0.,1.,0.));
#862=DIRECTION('',(-1.,0.,1.35525271560688E-16));
#863=DIRECTION('',(1.35742111995185E-16,0.,1.));
#864=DIRECTION('',(0.,0.,1.));
#865=DIRECTION('',(1.,0.,0.));
#866=DIRECTION('',(1.,0.,0.));
#867=DIRECTION('',(0.,0.,-1.));
#868=DIRECTION('',(1.,0.,0.));
#869=DIRECTION('',(0.,0.,-1.));
#870=DIRECTION('',(-1.,0.,-1.12937726300573E-17));
#871=DIRECTION('',(1.,0.,0.));
#872=DIRECTION('',(1.35525271560688E-16,0.,1.));
#873=DIRECTION('',(0.,-1.,6.12323399573677E-17));
#874=DIRECTION('',(-1.,0.,0.));
#875=DIRECTION('',(1.35525271560688E-16,0.,-1.));
#876=DIRECTION('',(1.,0.,0.));
#877=DIRECTION('',(-6.7762635780344E-17,0.,1.));
#878=DIRECTION('',(0.,-1.,6.12323399573677E-17));
#879=DIRECTION('',(-1.,0.,0.));
#880=DIRECTION('',(0.,0.,-1.));
#881=DIRECTION('',(1.,0.,0.));
#882=DIRECTION('',(0.,-1.,6.12323399573677E-17));
#883=DIRECTION('',(0.,-6.15826833971767E-17,-1.));
#884=DIRECTION('',(-1.,0.,-1.12937726300573E-17));
#885=DIRECTION('',(1.,0.,0.));
#886=DIRECTION('',(0.,0.,-1.));
#887=DIRECTION('',(0.,-1.,6.12323399573677E-17));
#888=DIRECTION('',(-1.,0.,0.));
#889=DIRECTION('',(-6.7762635780344E-17,0.,1.));
#890=DIRECTION('',(1.,0.,0.));
#891=DIRECTION('',(1.35525271560688E-16,0.,-1.));
#892=DIRECTION('',(0.,-1.,6.12323399573677E-17));
#893=DIRECTION('',(-1.,0.,0.));
#894=DIRECTION('',(1.35525271560688E-16,0.,1.));
#895=DIRECTION('',(1.,0.,0.));
#896=DIRECTION('',(0.,-1.,6.12323399573677E-17));
#897=DIRECTION('',(0.,-6.15826833971767E-17,-1.));
#898=DIRECTION('',(2.54822594101211E-31,-1.,-1.12406998026415E-16));
#899=DIRECTION('',(0.,1.12406998026415E-16,-1.));
#900=DIRECTION('',(0.,1.,1.12757025938492E-16));
#901=DIRECTION('',(2.54822594101211E-31,-1.,-1.12406998026415E-16));
#902=DIRECTION('',(1.,2.70056583034063E-31,-1.35525271560688E-16));
#903=DIRECTION('',(-1.35742111995185E-16,0.,-1.));
#904=DIRECTION('',(2.54822594101211E-31,-1.,-1.12406998026415E-16));
#905=DIRECTION('',(2.54822594101211E-31,-1.,-1.12406998026415E-16));
#906=DIRECTION('',(0.,0.,-1.));
#907=DIRECTION('',(2.54822594101211E-31,-1.,-1.12406998026415E-16));
#908=DIRECTION('',(-1.,-2.3958860516836E-31,-1.35525271560688E-16));
#909=DIRECTION('',(-1.35525271560688E-16,0.,1.));
#910=DIRECTION('',(2.54822594101211E-31,-1.,-1.12406998026415E-16));
#911=DIRECTION('',(0.,1.12406998026415E-16,-1.));
#912=DIRECTION('',(0.,1.,1.12757025938492E-16));
#913=DIRECTION('',(2.54822594101211E-31,-1.,-1.12406998026415E-16));
#914=DIRECTION('',(1.,2.47205599634786E-31,6.7762635780344E-17));
#915=DIRECTION('',(6.78710559975926E-17,0.,-1.));
#916=DIRECTION('',(2.54822594101211E-31,-1.,-1.12406998026415E-16));
#917=DIRECTION('',(2.54822594101211E-31,-1.,-1.12406998026415E-16));
#918=DIRECTION('',(0.,0.,-1.));
#919=DIRECTION('',(2.54822594101211E-31,-1.,-1.12406998026415E-16));
#920=DIRECTION('',(-1.,-2.54822594101211E-31,0.));
#921=DIRECTION('',(0.,-1.,0.));
#922=DIRECTION('',(0.,1.12406998026415E-16,-1.));
#923=DIRECTION('',(0.,1.,1.12757025938492E-16));
#924=DIRECTION('',(-1.,0.,0.));
#925=DIRECTION('',(0.,0.,-1.));
#926=DIRECTION('',(-1.,0.,0.));
#927=DIRECTION('',(0.,0.,-1.));
#928=CARTESIAN_POINT('',(0.,0.,0.));
#929=CARTESIAN_POINT('',(-4.8,5.55,1.));
#930=CARTESIAN_POINT('',(-4.8,4.35,1.));
#931=CARTESIAN_POINT('',(-4.8,-4.35,1.));
#932=CARTESIAN_POINT('',(-4.8,4.35,-0.2));
#933=CARTESIAN_POINT('',(-4.8,5.55,-0.2));
#934=CARTESIAN_POINT('',(-4.8,5.55,0.216261026600648));
#935=CARTESIAN_POINT('',(-4.8,5.55,-7.5));
#936=CARTESIAN_POINT('',(-4.8,5.55,-7.5));
#937=CARTESIAN_POINT('',(-4.8,4.55,-7.5));
#938=CARTESIAN_POINT('',(-4.8,4.55,0.216261026600648));
#939=CARTESIAN_POINT('',(-4.8,4.55,-0.200000000000001));
#940=CARTESIAN_POINT('',(-4.8,4.35,-0.2));
#941=CARTESIAN_POINT('',(-4.8,4.35,0.));
#942=CARTESIAN_POINT('',(-4.8,5.55,0.));
#943=CARTESIAN_POINT('',(-4.8,-4.35,0.));
#944=CARTESIAN_POINT('',(-4.8,-4.35,-0.2));
#945=CARTESIAN_POINT('',(-4.8,-4.55,-0.2));
#946=CARTESIAN_POINT('',(-4.8,-4.55,0.216261026600648));
#947=CARTESIAN_POINT('',(-4.8,-4.55,-7.5));
#948=CARTESIAN_POINT('',(-4.8,-5.55,-7.5));
#949=CARTESIAN_POINT('',(-4.8,-5.55,-7.5));
#950=CARTESIAN_POINT('',(-4.8,-5.55,0.216261026600648));
#951=CARTESIAN_POINT('',(-4.8,-5.55,-0.2));
#952=CARTESIAN_POINT('',(-4.8,-4.35,-0.2));
#953=CARTESIAN_POINT('',(-4.8,5.55,1.));
#954=CARTESIAN_POINT('',(4.8,-5.55,0.));
#955=CARTESIAN_POINT('',(4.8,-4.35,0.));
#956=CARTESIAN_POINT('',(4.8,4.35,0.));
#957=CARTESIAN_POINT('',(4.8,4.35,-0.2));
#958=CARTESIAN_POINT('',(4.8,4.55,-0.2));
#959=CARTESIAN_POINT('',(4.8,4.55,-7.5));
#960=CARTESIAN_POINT('',(4.8,4.55,-7.5));
#961=CARTESIAN_POINT('',(4.8,5.55,-7.5));
#962=CARTESIAN_POINT('',(4.8,5.55,-7.5));
#963=CARTESIAN_POINT('',(4.8,5.55,-7.5));
#964=CARTESIAN_POINT('',(4.8,5.55,-0.2));
#965=CARTESIAN_POINT('',(4.8,4.35,-0.2));
#966=CARTESIAN_POINT('',(4.8,4.35,1.));
#967=CARTESIAN_POINT('',(4.8,-5.55,1.));
#968=CARTESIAN_POINT('',(4.8,-4.35,1.));
#969=CARTESIAN_POINT('',(4.8,-4.35,-0.2));
#970=CARTESIAN_POINT('',(4.8,-5.55,-0.2));
#971=CARTESIAN_POINT('',(4.8,-5.55,-7.5));
#972=CARTESIAN_POINT('',(4.8,-5.55,-7.5));
#973=CARTESIAN_POINT('',(4.8,-5.55,-7.5));
#974=CARTESIAN_POINT('',(4.8,-4.55,-7.5));
#975=CARTESIAN_POINT('',(4.8,-4.55,-7.5));
#976=CARTESIAN_POINT('',(4.8,-4.55,-0.200000000000001));
#977=CARTESIAN_POINT('',(4.8,-4.35,-0.2));
#978=CARTESIAN_POINT('',(4.8,-5.55,1.));
#979=CARTESIAN_POINT('',(0.,0.,1.));
#980=CARTESIAN_POINT('',(2.,0.,1.));
#981=CARTESIAN_POINT('',(4.8,4.35,1.));
#982=CARTESIAN_POINT('',(-4.8,-4.35,1.));
#983=CARTESIAN_POINT('',(0.,0.,1.));
#984=CARTESIAN_POINT('',(4.8,4.35,0.));
#985=CARTESIAN_POINT('',(-4.8,-4.35,0.));
#986=CARTESIAN_POINT('',(0.,0.,0.));
#987=CARTESIAN_POINT('',(2.75,0.,0.));
#988=CARTESIAN_POINT('',(0.,0.,0.));
#989=CARTESIAN_POINT('',(0.,0.,-1.5));
#990=CARTESIAN_POINT('',(2.75,0.,-1.5));
#991=CARTESIAN_POINT('',(0.,0.,-1.5));
#992=CARTESIAN_POINT('',(0.,0.,-1.5));
#993=CARTESIAN_POINT('',(2.,0.,-1.5));
#994=CARTESIAN_POINT('',(0.,0.,-1.5));
#995=CARTESIAN_POINT('',(0.,0.,-1.15));
#996=CARTESIAN_POINT('',(1.65,0.,-1.15));
#997=CARTESIAN_POINT('',(0.,0.,0.65));
#998=CARTESIAN_POINT('',(1.65,0.,0.65));
#999=CARTESIAN_POINT('',(0.,0.,1.));
#1000=CARTESIAN_POINT('',(0.,0.,1.));
#1001=CARTESIAN_POINT('',(0.,0.,-1.5));
#1002=CARTESIAN_POINT('',(4.8,-5.55,-0.2));
#1003=CARTESIAN_POINT('',(-4.8,-5.55,-7.5));
#1004=CARTESIAN_POINT('',(-3.3,-5.55,-7.5));
#1005=CARTESIAN_POINT('',(-3.3,-5.55,-7.5));
#1006=CARTESIAN_POINT('',(-3.3,-5.55,-10.7));
#1007=CARTESIAN_POINT('',(-2.5,-5.55,-10.7));
#1008=CARTESIAN_POINT('',(-1.7,-5.55,-10.7));
#1009=CARTESIAN_POINT('',(-1.7,-5.55,-10.7));
#1010=CARTESIAN_POINT('',(-1.7,-5.55,-7.5));
#1011=CARTESIAN_POINT('',(-1.7,-5.55,-7.5));
#1012=CARTESIAN_POINT('',(1.7,-5.55,-7.5));
#1013=CARTESIAN_POINT('',(1.7,-5.55,-7.5));
#1014=CARTESIAN_POINT('',(1.7,-5.55,-10.7));
#1015=CARTESIAN_POINT('',(2.5,-5.55,-10.7));
#1016=CARTESIAN_POINT('',(3.3,-5.55,-10.7));
#1017=CARTESIAN_POINT('',(3.3,-5.55,-10.7));
#1018=CARTESIAN_POINT('',(3.3,-5.55,-7.5));
#1019=CARTESIAN_POINT('',(3.3,-5.55,-7.5));
#1020=CARTESIAN_POINT('',(2.5,-5.55,-10.7));
#1021=CARTESIAN_POINT('',(4.8,-4.55,-0.2));
#1022=CARTESIAN_POINT('',(3.3,-4.55,-7.5));
#1023=CARTESIAN_POINT('',(3.3,-4.55,-7.5));
#1024=CARTESIAN_POINT('',(3.3,-4.55,-10.7));
#1025=CARTESIAN_POINT('',(3.3,-4.55,-10.7));
#1026=CARTESIAN_POINT('',(2.5,-4.55,-10.7));
#1027=CARTESIAN_POINT('',(1.7,-4.55,-10.7));
#1028=CARTESIAN_POINT('',(1.7,-4.55,-7.5));
#1029=CARTESIAN_POINT('',(1.7,-4.55,-7.5));
#1030=CARTESIAN_POINT('',(-1.7,-4.55,-7.5));
#1031=CARTESIAN_POINT('',(-1.7,-4.55,-7.5));
#1032=CARTESIAN_POINT('',(-1.7,-4.55,-10.7));
#1033=CARTESIAN_POINT('',(-1.7,-4.55,-10.7));
#1034=CARTESIAN_POINT('',(-2.5,-4.55,-10.7));
#1035=CARTESIAN_POINT('',(-3.3,-4.55,-10.7));
#1036=CARTESIAN_POINT('',(-3.3,-4.55,-7.5));
#1037=CARTESIAN_POINT('',(-3.3,-4.55,-7.5));
#1038=CARTESIAN_POINT('',(-4.8,-4.55,-7.5));
#1039=CARTESIAN_POINT('',(2.5,-4.55,-10.7));
#1040=CARTESIAN_POINT('',(-3.3,-5.55,-7.5));
#1041=CARTESIAN_POINT('',(-4.8,-5.55,-7.5));
#1042=CARTESIAN_POINT('',(-3.3,-5.55,-10.7));
#1043=CARTESIAN_POINT('',(-3.3,-5.55,-7.5));
#1044=CARTESIAN_POINT('',(-1.7,-5.55,-10.7));
#1045=CARTESIAN_POINT('',(-2.5,-5.55,-10.7));
#1046=CARTESIAN_POINT('',(-1.7,-5.55,-7.5));
#1047=CARTESIAN_POINT('',(-1.7,-5.55,-10.7));
#1048=CARTESIAN_POINT('',(1.7,-5.55,-7.5));
#1049=CARTESIAN_POINT('',(-1.7,-5.55,-7.5));
#1050=CARTESIAN_POINT('',(1.7,-5.55,-10.7));
#1051=CARTESIAN_POINT('',(1.7,-5.55,-7.5));
#1052=CARTESIAN_POINT('',(3.3,-5.55,-10.7));
#1053=CARTESIAN_POINT('',(2.5,-5.55,-10.7));
#1054=CARTESIAN_POINT('',(3.3,-5.55,-7.5));
#1055=CARTESIAN_POINT('',(3.3,-5.55,-10.7));
#1056=CARTESIAN_POINT('',(3.3,-5.55,-7.5));
#1057=CARTESIAN_POINT('',(-4.8,-4.35,-0.2));
#1058=CARTESIAN_POINT('',(-4.8,-4.35,-0.2));
#1059=CARTESIAN_POINT('',(-4.8,5.55,-0.2));
#1060=CARTESIAN_POINT('',(3.3,5.55,-7.5));
#1061=CARTESIAN_POINT('',(3.3,5.55,-7.5));
#1062=CARTESIAN_POINT('',(3.3,5.55,-10.7));
#1063=CARTESIAN_POINT('',(3.3,5.55,-10.7));
#1064=CARTESIAN_POINT('',(2.5,5.55,-10.7));
#1065=CARTESIAN_POINT('',(1.7,5.55,-10.7));
#1066=CARTESIAN_POINT('',(1.7,5.55,-7.5));
#1067=CARTESIAN_POINT('',(1.7,5.55,-7.5));
#1068=CARTESIAN_POINT('',(-1.7,5.55,-7.5));
#1069=CARTESIAN_POINT('',(-1.7,5.55,-7.5));
#1070=CARTESIAN_POINT('',(-1.7,5.55,-10.7));
#1071=CARTESIAN_POINT('',(-1.7,5.55,-10.7));
#1072=CARTESIAN_POINT('',(-2.5,5.55,-10.7));
#1073=CARTESIAN_POINT('',(-3.3,5.55,-10.7));
#1074=CARTESIAN_POINT('',(-3.3,5.55,-7.5));
#1075=CARTESIAN_POINT('',(-3.3,5.55,-7.5));
#1076=CARTESIAN_POINT('',(-4.8,5.55,-7.5));
#1077=CARTESIAN_POINT('',(2.5,5.55,-10.7));
#1078=CARTESIAN_POINT('',(-4.8,4.55,-0.2));
#1079=CARTESIAN_POINT('',(-4.8,4.55,-7.5));
#1080=CARTESIAN_POINT('',(-3.3,4.55,-7.5));
#1081=CARTESIAN_POINT('',(-3.3,4.55,-7.5));
#1082=CARTESIAN_POINT('',(-3.3,4.55,-10.7));
#1083=CARTESIAN_POINT('',(-2.5,4.55,-10.7));
#1084=CARTESIAN_POINT('',(-1.7,4.55,-10.7));
#1085=CARTESIAN_POINT('',(-1.7,4.55,-10.7));
#1086=CARTESIAN_POINT('',(-1.7,4.55,-7.5));
#1087=CARTESIAN_POINT('',(-1.7,4.55,-7.5));
#1088=CARTESIAN_POINT('',(1.7,4.55,-7.5));
#1089=CARTESIAN_POINT('',(1.7,4.55,-7.5));
#1090=CARTESIAN_POINT('',(1.7,4.55,-10.7));
#1091=CARTESIAN_POINT('',(2.5,4.55,-10.7));
#1092=CARTESIAN_POINT('',(3.3,4.55,-10.7));
#1093=CARTESIAN_POINT('',(3.3,4.55,-10.7));
#1094=CARTESIAN_POINT('',(3.3,4.55,-7.5));
#1095=CARTESIAN_POINT('',(3.3,4.55,-7.5));
#1096=CARTESIAN_POINT('',(2.5,4.55,-10.7));
#1097=CARTESIAN_POINT('',(3.3,5.55,-7.5));
#1098=CARTESIAN_POINT('',(3.3,5.55,-7.5));
#1099=CARTESIAN_POINT('',(3.3,5.55,-10.7));
#1100=CARTESIAN_POINT('',(3.3,5.55,-10.7));
#1101=CARTESIAN_POINT('',(1.7,5.55,-10.7));
#1102=CARTESIAN_POINT('',(2.5,5.55,-10.7));
#1103=CARTESIAN_POINT('',(1.7,5.55,-7.5));
#1104=CARTESIAN_POINT('',(1.7,5.55,-7.5));
#1105=CARTESIAN_POINT('',(-1.7,5.55,-7.5));
#1106=CARTESIAN_POINT('',(-1.7,5.55,-7.5));
#1107=CARTESIAN_POINT('',(-1.7,5.55,-10.7));
#1108=CARTESIAN_POINT('',(-1.7,5.55,-10.7));
#1109=CARTESIAN_POINT('',(-3.3,5.55,-10.7));
#1110=CARTESIAN_POINT('',(-2.5,5.55,-10.7));
#1111=CARTESIAN_POINT('',(-3.3,5.55,-7.5));
#1112=CARTESIAN_POINT('',(-3.3,5.55,-7.5));
#1113=CARTESIAN_POINT('',(-4.8,5.55,-7.5));
#1114=CARTESIAN_POINT('',(4.8,4.35,-0.2));
#1115=CARTESIAN_POINT('',(4.8,4.35,-0.2));
#1116=MECHANICAL_DESIGN_GEOMETRIC_PRESENTATION_REPRESENTATION('',(#32),
#1117);
#1117=(
GEOMETRIC_REPRESENTATION_CONTEXT(3)
GLOBAL_UNCERTAINTY_ASSIGNED_CONTEXT((#1118))
GLOBAL_UNIT_ASSIGNED_CONTEXT((#1124,#1120,#1119))
REPRESENTATION_CONTEXT('K31-00A(H)_Screw_terminal',
'TOP_LEVEL_ASSEMBLY_PART')
);
#1118=UNCERTAINTY_MEASURE_WITH_UNIT(LENGTH_MEASURE(2.E-5),#1124,
'DISTANCE_ACCURACY_VALUE','Maximum Tolerance applied to model');
#1119=(
NAMED_UNIT(*)
SI_UNIT($,.STERADIAN.)
SOLID_ANGLE_UNIT()
);
#1120=(
CONVERSION_BASED_UNIT('DEGREE',#1122)
NAMED_UNIT(#1121)
PLANE_ANGLE_UNIT()
);
#1121=DIMENSIONAL_EXPONENTS(0.,0.,0.,0.,0.,0.,0.);
#1122=PLANE_ANGLE_MEASURE_WITH_UNIT(PLANE_ANGLE_MEASURE(0.0174532925),#1123);
#1123=(
NAMED_UNIT(*)
PLANE_ANGLE_UNIT()
SI_UNIT($,.RADIAN.)
);
#1124=(
LENGTH_UNIT()
NAMED_UNIT(*)
SI_UNIT(.MILLI.,.METRE.)
);
ENDSEC;
END-ISO-10303-21;
